<?xml version="1.0" encoding="UTF-8" standalone="no"?>
<!DOCTYPE svg PUBLIC "-//W3C//DTD SVG 1.1//EN" "http://www.w3.org/Graphics/SVG/1.1/DTD/svg11.dtd">
<!-- Created with Vectornator (http://vectornator.io/) -->
<svg height="100%" stroke-miterlimit="10" style="fill-rule:nonzero;clip-rule:evenodd;stroke-linecap:round;stroke-linejoin:round;" version="1.1" viewBox="0 0 2384.24 1683.99" width="100%" xml:space="preserve" xmlns="http://www.w3.org/2000/svg" xmlns:vectornator="http://vectornator.io" xmlns:xlink="http://www.w3.org/1999/xlink">
<defs/>
<g id="Layer-1" vectornator:layerName="Layer 1">
<path d="M771.456 496.741L983.34 1223.43" fill="none" opacity="1" stroke="#cfcdcc" stroke-linecap="butt" stroke-linejoin="round" stroke-width="10"/>
<path d="M1643.11 492.426L1487.24 1222.4" fill="none" opacity="1" stroke="#cfcdcc" stroke-linecap="butt" stroke-linejoin="round" stroke-width="10"/>
<path d="M939.494 1073.47L1036.17 1225.96" fill="none" opacity="1" stroke="#96928d" stroke-linecap="butt" stroke-linejoin="round" stroke-width="10"/>
<path d="M918.758 1001.08L1096.32 1222.36" fill="none" opacity="1" stroke="#96928d" stroke-linecap="butt" stroke-linejoin="round" stroke-width="10"/>
<path d="M880.147 851.053L1153.5 1212.15" fill="none" opacity="1" stroke="#96928d" stroke-linecap="butt" stroke-linejoin="round" stroke-width="10"/>
<path d="M852.475 749.524L1235.81 1218.8" fill="none" opacity="1" stroke="#96928d" stroke-linecap="butt" stroke-linejoin="round" stroke-width="10"/>
<path d="M817.725 636.354L1289.29 1218.28" fill="none" opacity="1" stroke="#96928d" stroke-linecap="butt" stroke-linejoin="round" stroke-width="10"/>
<path d="M762.769 479.171L1352.23 1217.68" fill="none" opacity="1" stroke="#96928d" stroke-linecap="butt" stroke-linejoin="round" stroke-width="10"/>
<path d="M882.937 498.744L1416.79 1220.79" fill="none" opacity="1" stroke="#9c9a98" stroke-linecap="butt" stroke-linejoin="round" stroke-width="10"/>
<path d="M983.901 497.479L1485.7 1181.51" fill="none" opacity="1" stroke="#9c9a98" stroke-linecap="butt" stroke-linejoin="round" stroke-width="10"/>
<path d="M1180.15 497.032L1528.17 1023.07" fill="none" opacity="1" stroke="#9c9a98" stroke-linecap="butt" stroke-linejoin="round" stroke-width="10"/>
<path d="M1090.18 495.889L1508.87 1091.62" fill="none" opacity="1" stroke="#9c9a98" stroke-linecap="butt" stroke-linejoin="round" stroke-width="10"/>
<path d="M1348.12 494.144L1564.21 851.7" fill="none" opacity="1" stroke="#9c9a98" stroke-linecap="butt" stroke-linejoin="round" stroke-width="10"/>
<path d="M1492.23 493.404L1598.96 690.676" fill="none" opacity="1" stroke="#9c9a98" stroke-linecap="butt" stroke-linejoin="round" stroke-width="10"/>
<path d="M1278.1 498.858L1542.97 933.829" fill="none" opacity="1" stroke="#9c9a98" stroke-linecap="butt" stroke-linejoin="round" stroke-width="10"/>
<path d="M1415.6 490.435L1577.72 766.985" fill="none" opacity="1" stroke="#9c9a98" stroke-linecap="butt" stroke-linejoin="round" stroke-width="10"/>
<path d="M1506.29 1093.56L1420.61 1218.34" fill="none" opacity="1" stroke="#9c9a98" stroke-linecap="butt" stroke-linejoin="round" stroke-width="10"/>
<path d="M1556.49 881.448L1319.78 1219.97" fill="none" opacity="1" stroke="#9c9a98" stroke-linecap="butt" stroke-linejoin="round" stroke-width="10"/>
<path d="M1578.37 715.896L1233.54 1217.25" fill="none" opacity="1" stroke="#9c9a98" stroke-linecap="butt" stroke-linejoin="round" stroke-width="10"/>
<path d="M1624.31 491.997L1148.85 1224.36" fill="none" opacity="1" stroke="#9c9a98" stroke-linecap="butt" stroke-linejoin="round" stroke-width="10"/>
<path d="M1358.93 636.354L1035.86 1223.26" fill="none" opacity="1" stroke="#9c9a98" stroke-linecap="butt" stroke-linejoin="round" stroke-width="10"/>
<path d="M1181.6 495.315L948.36 1085.15" fill="none" opacity="1" stroke="#9c9a98" stroke-linecap="butt" stroke-linejoin="round" stroke-width="10"/>
<path d="M1091.29 492.765L893.661 907.962" fill="none" opacity="1" stroke="#9c9a98" stroke-linecap="butt" stroke-linejoin="round" stroke-width="10"/>
<path d="M990.569 496.629L858.911 779.272" fill="none" opacity="1" stroke="#9c9a98" stroke-linecap="butt" stroke-linejoin="round" stroke-width="10"/>
<path d="M913.656 502.231L824.16 664.808" fill="none" opacity="1" stroke="#9c9a98" stroke-linecap="butt" stroke-linejoin="round" stroke-width="10"/>
<path d="M1641.76 501.165L1486.4 1223.24" fill="none" opacity="1" stroke="#9c9a98" stroke-linecap="butt" stroke-linejoin="round" stroke-width="10"/>
<path d="M1569.42 753.626C1568.8 751.331 1572.75 759.038 1573.15 759.573C1576.08 763.478 1576.78 769.397 1579.96 772.985" fill="none" opacity="1" stroke="#9c9a98" stroke-linecap="round" stroke-linejoin="round" stroke-width="10"/>
<path d="M1596.98 690.704L1597.12 691.203L1597 691.769L1596.89 692.336L1597.38 692.201L1597.5 691.634L1597.5 691.634" fill="none" opacity="1" stroke="#9c9a98" stroke-linecap="round" stroke-linejoin="round" stroke-width="10"/>
<path d="M1563.42 854.067C1563.3 854.278 1563.18 854.489 1563.06 854.701" fill="none" opacity="1" stroke="#9c9a98" stroke-linecap="round" stroke-linejoin="round" stroke-width="10"/>
<path d="M1553.07 885.943C1553.44 882.361 1558.73 881.055 1559.07 877.825" fill="none" opacity="1" stroke="#9c9a98" stroke-linecap="round" stroke-linejoin="round" stroke-width="10"/>
<path d="M1540.57 930.471C1540.15 930.078 1539.55 928.55 1539.49 929.124C1539.48 929.228 1545.36 939.953 1545.68 940.253" fill="none" opacity="1" stroke="#9c9a98" stroke-linecap="round" stroke-linejoin="round" stroke-width="10"/>
<path d="M1509.55 1092.65C1509.52 1092.75 1509.42 1092.99 1509.51 1092.95C1509.77 1092.86 1510.09 1092.87 1510.28 1092.67C1510.69 1092.22 1509.86 1091.42 1509.55 1092.65Z" fill="none" opacity="1" stroke="#9c9a98" stroke-linecap="round" stroke-linejoin="round" stroke-width="10"/>
<path d="M1477.81 1171.07C1481.13 1175.91 1486.82 1184.99 1491.26 1189.13" fill="none" opacity="1" stroke="#9c9a98" stroke-linecap="round" stroke-linejoin="round" stroke-width="10"/>
<path d="M1575.5 717.938C1575.5 715.902 1578.21 713.116 1579.41 711.503C1583.19 706.439 1587.24 700.049 1590.08 694.344C1591.86 690.769 1594.28 687.655 1596.49 684.334C1597.27 683.158 1597.99 682.022 1598.62 680.759C1598.86 680.283 1598.96 678.953 1599.33 679.33C1600.14 680.138 1597.86 683.001 1597.55 683.619C1595.46 687.819 1592.42 691.839 1589.37 695.416C1586.69 698.554 1585.14 702.491 1583.32 706.141C1581.65 709.5 1578.57 712.126 1576.92 715.435C1575.85 717.579 1574.57 719.491 1573.36 721.513C1572.7 722.618 1571.23 724.73 1571.23 724.73C1571.23 724.73 1571.74 724.285 1571.94 724.015C1572.94 722.672 1574.06 721.39 1575.14 720.083C1577.8 716.872 1580 713.213 1582.26 709.716C1586.3 703.441 1589.48 696.676 1593.64 690.412C1596.58 685.979 1600.55 681.165 1602.89 676.47" fill="none" opacity="1" stroke="#9c9a98" stroke-linecap="round" stroke-linejoin="round" stroke-width="10"/>
<path d="M770.627 494.943L985.991 1232.18" fill="none" opacity="1" stroke="#9c9a98" stroke-linecap="butt" stroke-linejoin="round" stroke-width="10"/>
<path d="M811.389 621.74C814.12 626.286 816.523 630.813 819.307 635.41C820.205 636.893 820.863 638.741 821.947 640.103C822.158 640.369 822.556 640.919 822.556 640.919C822.556 640.919 822.305 640.364 822.15 640.103C821.292 638.666 820.127 637.464 819.307 636.022C817.43 632.721 815.407 629.474 813.419 626.228C812.923 625.418 811.357 621.688 811.389 621.74Z" fill="none" opacity="1" stroke="#9c9a98" stroke-linecap="round" stroke-linejoin="round" stroke-width="5"/>
<path d="M828.038 660.303C828.038 663.683 826.637 668.868 826.008 672.137C825.921 672.585 825.804 673.772 826.211 672.137" fill="none" opacity="1" stroke="#9c9a98" stroke-linecap="round" stroke-linejoin="round" stroke-width="5"/>
<path d="M844.281 732.532C844.281 731.837 844.324 731.802 843.875 730.9C843.75 730.649 843.974 731.456 844.078 731.716C844.489 732.748 844.027 731.95 844.687 733.144C845.144 733.97 845.587 734.807 846.109 735.593C847.446 737.61 848.97 739.537 850.372 741.51C853.368 745.725 856.564 749.728 859.509 753.956C859.639 754.143 861.597 756.755 861.337 757.017C861.322 757.032 860.219 755.716 860.118 755.589C859.458 754.759 858.779 753.95 858.088 753.14C854.192 748.573 850.456 743.743 847.53 738.449C846.586 736.743 845.65 735.041 844.687 733.348C844.678 733.332 843.303 731.512 843.672 731.512C843.933 731.512 844.795 733.972 844.89 734.165C846.111 736.618 847.298 739.178 848.748 741.51C851.084 745.267 853.543 748.957 855.854 752.732C856.635 754.006 857.423 755.272 858.088 756.609C858.239 756.913 858.697 757.425 858.697 757.425C858.697 757.425 858.124 757.053 857.885 756.813C856.692 755.615 855.576 754.199 854.433 752.936C851.778 750.001 849.543 746.614 847.327 743.346C846.772 742.529 843.627 736.478 844.078 737.837" fill="none" opacity="1" stroke="#9c9a98" stroke-linecap="round" stroke-linejoin="round" stroke-width="5"/>
<path d="M862.149 775.993C860.82 780.846 860.321 786.466 860.321 791.499C860.321 791.913 860.177 790.685 860.118 790.275C859.989 789.369 860.118 788.336 860.118 787.419C860.118 784.369 860.471 781.75 861.337 778.849C861.499 778.305 862.7 773.981 862.149 775.993Z" fill="none" opacity="1" stroke="#9c9a98" stroke-linecap="round" stroke-linejoin="round" stroke-width="5"/>
<path d="M874.355 839.743C876.858 838.191 878.65 845.552 880.161 847.795C881.282 849.459 882.455 851.091 883.436 852.845C884.617 854.957 885.938 857.086 886.896 859.301C887.055 859.669 887.679 860.389 887.283 860.442C886.421 860.556 884.447 856.681 884.101 856.095C881.947 852.454 871.38 841.586 874.355 839.743Z" fill="none" opacity="1" stroke="#9c9a98" stroke-linecap="round" stroke-linejoin="round" stroke-width="5"/>
<path d="M951.66 1084.81C952.943 1083.63 952.076 1083.86 951.891 1082.56C951.646 1080.85 950.275 1087.52 950.003 1088.65C949.703 1089.89 949.241 1090.95 948.847 1092.14C948.756 1092.41 948.521 1093.22 948.693 1092.99C950.159 1091.02 950.032 1088.06 950.696 1085.78C950.953 1084.9 951.208 1084.09 951.428 1083.18C951.476 1082.99 951.458 1082.48 951.621 1082.6C952.45 1083.23 950.934 1085.48 951.66 1084.81Z" fill="none" opacity="1" stroke="#9c9a98" stroke-linecap="round" stroke-linejoin="round" stroke-width="5"/>
<path d="M1094.51 1134.9C1096.34 1136.63 1097.67 1139.2 1099.14 1141.27C1100.72 1143.51 1102.84 1145.38 1104.54 1147.51C1107.33 1151.03 1109.77 1154.86 1112.84 1158.12C1114.76 1160.17 1115.61 1163.02 1117.62 1164.92" fill="none" opacity="1" stroke="#9c9a98" stroke-linecap="round" stroke-linejoin="round" stroke-width="10"/>
<path d="M1064.19 1172.13C1066.69 1165.09 1071.25 1158.13 1075.06 1151.64C1076.62 1148.99 1078.61 1146.16 1079.33 1143.15" fill="none" opacity="1" stroke="#9c9a98" stroke-linecap="round" stroke-linejoin="round" stroke-width="10"/>
<path d="M756.385 488.119C756.385 487.399 956.504 486.816 1203.36 486.816C1450.22 486.816 1650.34 487.399 1650.34 488.119C1650.34 488.839 1450.22 489.423 1203.36 489.423C956.504 489.423 756.385 488.839 756.385 488.119Z" fill="#6f6d6a" fill-rule="nonzero" opacity="1" stroke="#6d6965" stroke-linecap="butt" stroke-linejoin="round" stroke-width="30"/>
<path d="M1354.35 642.248L1421.49 502.245" fill="none" opacity="1" stroke="#a5a4a2" stroke-linecap="butt" stroke-linejoin="round" stroke-width="10"/>
<path d="M904.102 428.265L903.754 428.265" fill="none" opacity="1" stroke="#a5a4a2" stroke-linecap="butt" stroke-linejoin="round" stroke-width="10"/>
<path d="M972.831 1175.86L1313.85 505.082" fill="none" opacity="1" stroke="#a5a4a2" stroke-linecap="butt" stroke-linejoin="round" stroke-width="10"/>
<path d="M985.152 1223.99C985.152 1221.28 1097.83 1219.09 1236.83 1219.09C1375.82 1219.09 1488.5 1221.28 1488.5 1223.99C1488.5 1226.7 1375.82 1228.9 1236.83 1228.9C1097.83 1228.9 985.152 1226.7 985.152 1223.99Z" fill="#6f6d6a" fill-rule="nonzero" opacity="1" stroke="#6f6d6a" stroke-linecap="butt" stroke-linejoin="round" stroke-width="10"/>
<path d="M1309.86 503.203C1309.93 503.455 1311.89 503.463 1312.16 503.453C1313.23 503.412 1314.29 503.602 1315.36 503.584C1316.62 503.563 1317.93 503.406 1319.19 503.455" fill="none" opacity="1" stroke="#a5a4a2" stroke-linecap="round" stroke-linejoin="round" stroke-width="1"/>
<path d="M1319.43 503.469C1319.22 503.859 1319.12 504.569 1318.97 505.018C1318.69 505.821 1318.25 506.584 1317.84 507.323" fill="none" opacity="1" stroke="#a5a4a2" stroke-linecap="round" stroke-linejoin="round" stroke-width="1"/>
<path d="M1319 503.663C1318.71 503.832 1318.62 504.217 1318.46 504.508C1318.06 505.215 1317.7 505.947 1317.35 506.679C1317.32 506.734 1316.84 507.754 1316.83 507.747C1316.78 507.729 1317.17 506.682 1317.21 506.597C1317.52 505.856 1317.88 505.138 1318.31 504.458C1318.37 504.37 1318.56 503.96 1318.68 503.925C1318.71 503.917 1318.66 503.979 1318.64 504.005C1318.55 504.154 1318.56 504.117 1318.46 504.278C1318.32 504.501 1318.18 504.724 1318.04 504.944C1317.7 505.457 1317.4 505.991 1317.09 506.518C1317.07 506.541 1316.69 507.165 1316.66 507.107C1316.48 506.722 1317.61 504.749 1317.82 504.402C1317.98 504.157 1318.14 503.917 1318.3 503.676C1318.34 503.616 1318.49 503.491 1318.42 503.497C1318.26 503.51 1317.98 504.019 1317.9 504.12C1317.42 504.757 1316.99 505.423 1316.55 506.093C1316.54 506.108 1316.07 506.837 1316.01 506.762C1315.8 506.495 1316.85 504.564 1317.02 504.285C1317.03 504.27 1317.42 503.723 1317.4 503.708C1317.38 503.689 1316.95 504.23 1316.94 504.247C1316.53 504.771 1316.16 505.322 1315.78 505.866C1315.78 505.867 1315.48 506.316 1315.42 506.254C1315.28 506.114 1316.05 504.562 1316.15 504.36C1316.22 504.235 1316.3 504.116 1316.37 503.993C1316.41 503.923 1316.54 503.781 1316.47 503.774C1316.31 503.758 1316.01 504.31 1315.95 504.406C1315.62 504.875 1315.34 505.374 1315.02 505.851C1314.98 505.913 1314.75 506.345 1314.63 506.323C1314.5 506.298 1314.77 505.609 1314.78 505.56C1314.99 505.002 1315.27 504.479 1315.54 503.951C1315.54 503.951 1315.71 503.692 1315.68 503.65C1315.64 503.598 1315.22 504.131 1315.21 504.147C1314.81 504.653 1314.47 505.198 1314.08 505.712C1314.04 505.77 1313.8 506.135 1313.69 506.124C1313.61 506.115 1313.66 505.917 1313.66 505.895C1313.78 505.36 1314.04 504.835 1314.3 504.358C1314.37 504.235 1314.62 504.007 1314.49 503.982C1314.38 503.963 1313.42 505.328 1313.31 505.478C1313.29 505.499 1313.1 505.81 1313.03 505.743C1312.88 505.595 1313.44 504.374 1313.52 504.172C1313.54 504.107 1313.63 503.988 1313.57 503.967C1313.34 503.896 1312.53 505.236 1312.35 505.138C1312.11 505.007 1312.73 504.204 1312.66 504.071C1312.64 504.045 1312.52 504.183 1312.51 504.198C1312.39 504.335 1312.2 504.642 1311.99 504.653C1311.62 504.674 1312.23 503.582 1311.7 503.943" fill="none" opacity="1" stroke="#a5a4a2" stroke-linecap="round" stroke-linejoin="round" stroke-width="1"/>
<path d="M1314.37 504.426C1314.34 504.364 1314.35 503.902 1314.33 503.76C1314.32 503.685 1314.34 503.611 1314.35 503.536C1314.36 503.494 1314.31 503.386 1314.35 503.408C1314.38 503.424 1314.4 503.548 1314.43 503.551C1314.46 503.554 1314.62 503.443 1314.7 503.44C1314.89 503.434 1315.11 503.514 1315.29 503.502C1315.69 503.476 1316.53 503.326 1316.89 503.547" fill="none" opacity="1" stroke="#a5a4a2" stroke-linecap="round" stroke-linejoin="round" stroke-width="1"/>
<path d="M1634.97 535.632L1634.87 535.712" fill="none" opacity="1" stroke="#cfcdcc" stroke-linecap="butt" stroke-linejoin="round" stroke-width="10"/>
</g>
</svg>
