<?xml version="1.0" encoding="UTF-8" standalone="no"?>
<!DOCTYPE svg PUBLIC "-//W3C//DTD SVG 1.1//EN" "http://www.w3.org/Graphics/SVG/1.1/DTD/svg11.dtd">
<!-- Created with Vectornator (http://vectornator.io/) -->
<svg height="100%" stroke-miterlimit="10" style="fill-rule:nonzero;clip-rule:evenodd;stroke-linecap:round;stroke-linejoin:round;" version="1.1" viewBox="0 0 2384.24 1683.99" width="100%" xml:space="preserve" xmlns="http://www.w3.org/2000/svg" xmlns:vectornator="http://vectornator.io" xmlns:xlink="http://www.w3.org/1999/xlink">
<defs/>
<g id="Layer-2" vectornator:layerName="Layer 2">
<path d="M1141.24 404.57L1094.99 536.106" fill="none" opacity="1" stroke="#9c9a98" stroke-linecap="butt" stroke-linejoin="round" stroke-width="10"/>
<path d="M1220.21 374.899L1134.56 613.185" fill="none" opacity="1" stroke="#9c9a98" stroke-linecap="butt" stroke-linejoin="round" stroke-width="10"/>
<path d="M1298.51 354.856L1212.53 623.393" fill="none" opacity="1" stroke="#9c9a98" stroke-linecap="butt" stroke-linejoin="round" stroke-width="10"/>
<path d="M1410.59 346.424L1292.64 634.923" fill="none" opacity="1" stroke="#9c9a98" stroke-linecap="butt" stroke-linejoin="round" stroke-width="10"/>
<path d="M1544.46 345.125L1423.14 619.805" fill="none" opacity="1" stroke="#9c9a98" stroke-linecap="butt" stroke-linejoin="round" stroke-width="10"/>
<path d="M1777.14 370.99L1630.7 654.584" fill="none" opacity="1" stroke="#9c9a98" stroke-linecap="butt" stroke-linejoin="round" stroke-width="10"/>
<path d="M1863.18 419.512L1863.8 420.016" fill="none" opacity="1" stroke="#9c9a98" stroke-linecap="butt" stroke-linejoin="round" stroke-width="10"/>
<path d="M1878.61 428.609L1762.33 589.867" fill="none" opacity="1" stroke="#9c9a98" stroke-linecap="butt" stroke-linejoin="round" stroke-width="10"/>
<path d="M1064.61 465.229L1119.86 560.956" fill="none" opacity="1" stroke="#9c9a98" stroke-linecap="butt" stroke-linejoin="round" stroke-width="10"/>
<path d="M1128.86 412.547L1248.35 622.632" fill="none" opacity="1" stroke="#9c9a98" stroke-linecap="butt" stroke-linejoin="round" stroke-width="10"/>
<path d="M1210.45 371.429L1372.35 643.191" fill="none" opacity="1" stroke="#9c9a98" stroke-linecap="butt" stroke-linejoin="round" stroke-width="10"/>
<path d="M1319.67 348.943L1483.5 643.834" fill="none" opacity="1" stroke="#9c9a98" stroke-linecap="butt" stroke-linejoin="round" stroke-width="10"/>
<path d="M1434.67 343.161L1559.43 619.222" fill="none" opacity="1" stroke="#9c9a98" stroke-linecap="butt" stroke-linejoin="round" stroke-width="10"/>
<path d="M1527.73 337.148L1634.86 608.796" fill="none" opacity="1" stroke="#9c9a98" stroke-linecap="butt" stroke-linejoin="round" stroke-width="10"/>
<path d="M1607.62 332.308L1693.71 595.719" fill="none" opacity="1" stroke="#9c9a98" stroke-linecap="butt" stroke-linejoin="round" stroke-width="10"/>
<path d="M1688.83 356.512L1762.22 587.052" fill="none" opacity="1" stroke="#9c9a98" stroke-linecap="butt" stroke-linejoin="round" stroke-width="10"/>
<path d="M1429.05 606.323C1427.05 610.333 1424.56 614.049 1422.88 618.232C1421.1 622.707 1420.2 627.433 1417.99 631.843" fill="none" opacity="1" stroke="#9c9a98" stroke-linecap="round" stroke-linejoin="round" stroke-width="10"/>
<path d="M1555.38 608.024C1554.79 606.857 1555.95 609.506 1556.02 609.726C1556.51 611.454 1557.07 613.3 1557.5 615.042C1558.76 620.071 1561.76 625.264 1564.1 629.929" fill="none" opacity="1" stroke="#9c9a98" stroke-linecap="round" stroke-linejoin="round" stroke-width="10"/>
<path d="M1628.11 595.264C1629.9 598.844 1630.81 602.689 1632.36 606.323C1634.93 612.305 1637.95 618.339 1640.87 624.187" fill="none" opacity="1" stroke="#9c9a98" stroke-linecap="round" stroke-linejoin="round" stroke-width="10"/>
<path d="M1689.36 583.355C1688.59 584.883 1691.08 589.377 1691.7 591.224C1693.62 596.998 1696.7 602.679 1699.78 607.812C1700.83 609.556 1700.87 611.922 1701.48 613.766" fill="none" opacity="1" stroke="#9c9a98" stroke-linecap="round" stroke-linejoin="round" stroke-width="10"/>
<path d="M1760.79 587.781C1761.31 583.731 1760.61 591.557 1760.69 590.226C1760.74 589.412 1760.68 588.59 1760.79 587.781Z" fill="none" opacity="1" stroke="#9c9a98" stroke-linecap="round" stroke-linejoin="round" stroke-width="10"/>
<path d="M1754.72 371.322C1753.3 374.157 1757.76 384.831 1758.83 388.04C1761.46 395.951 1763.72 404.023 1766.74 411.797C1769.31 418.389 1772.57 424.606 1775.25 431.154C1778.17 438.281 1781.61 445.247 1784.05 452.564C1787.04 461.542 1788.26 471.028 1790.79 480.134C1795.54 497.207 1801.01 514.084 1805.75 531.166C1809.85 545.915 1813.6 560.296 1818.95 574.574C1820.78 579.464 1821.6 585.144 1823.94 589.825" fill="none" opacity="1" stroke="#9c9a98" stroke-linecap="round" stroke-linejoin="round" stroke-width="10"/>
<path d="M1048.85 486.394C1048.85 398.514 1244.01 327.273 1484.76 327.273C1725.52 327.273 1920.68 398.514 1920.68 486.394C1920.68 574.275 1725.52 645.516 1484.76 645.516C1244.01 645.516 1048.85 574.275 1048.85 486.394Z" fill="none" opacity="1" stroke="#cfcdcc" stroke-linecap="butt" stroke-linejoin="round" stroke-width="10"/>
<path d="M1261.81 1228.91C1261.81 1177.29 1375.42 1135.44 1515.56 1135.44C1655.71 1135.44 1769.32 1177.29 1769.32 1228.91C1769.32 1280.53 1655.71 1322.37 1515.56 1322.37C1375.42 1322.37 1261.81 1280.53 1261.81 1228.91Z" fill="#6f6d6a" fill-rule="nonzero" opacity="1" stroke="#cfcdcc" stroke-linecap="butt" stroke-linejoin="round" stroke-width="10"/>
<path d="M1693.15 353.567L1521.47 636.647" fill="none" opacity="1" stroke="#a5a4a2" stroke-linecap="butt" stroke-linejoin="round" stroke-width="10"/>
<path d="M1264.46 1227.46C1264.53 1176.73 1377.25 1135.76 1516.23 1135.94C1655.2 1136.13 1767.81 1177.4 1767.74 1228.12C1767.68 1278.85 1654.96 1319.82 1515.98 1319.64C1377.01 1319.46 1264.4 1278.18 1264.46 1227.46Z" fill="none" opacity="1" stroke="#6f6d6a" stroke-linecap="butt" stroke-linejoin="round" stroke-width="10"/>
<path d="M1048.55 474.208C1048.66 386.949 1243.71 316.469 1484.2 316.787C1724.69 317.106 1919.55 388.101 1919.44 475.36" fill="none" opacity="1" stroke="#6d6965" stroke-linecap="butt" stroke-linejoin="round" stroke-width="30"/>
</g>
</svg>
